{"title":"Deadpool 2016 720p HC HDRIP x264 AC3 TiTAN","uid":14006431,"size":2541206937,"categoryP":"video","categoryS":"hd___movies","magnet":"?xt=urn:btih:3aee093745b2671f5e15e2a5d4a0b5787a881fa1&amp;dn=Deadpool+2016+720p+HC+HDRIP+x264+AC3+TiTAN&amp;tr=udp%3A%2F%2Ftracker.leechers-paradise.org%3A6969&amp;tr=udp%3A%2F%2Fzer0day.ch%3A1337&amp;tr=udp%3A%2F%2Fopen.demonii.com%3A1337&amp;tr=udp%3A%2F%2Ftracker.coppersurfer.tk%3A6969&amp;tr=udp%3A%2F%2Fexodus.desync.com%3A6969","seeders":2,"leechers":3,"uploader":"makintos13","files":2,"time":1458793781,"description":"Deadpool 2016 720p HC HDRIP x264 AC3 TiTAN\r\n\r\nScreens:\r\n \nhttp://imgmak.com/KFj\r\n \nhttp://imgmak.com/KFw\r\n \nhttp://imgmak.com/KFJ\r\n \nhttp://imgmak.com/KFW\r\n \nhttp://imgmak.com/KFd\r\n \nhttp://imgmak.com/KFs\r\n \nhttp://imgmak.com/KF4\r\n \nhttp://imgmak.com/KF8\r\n\r\n:::::::::::::::::\r\n \nhttp://www.imdb.com/title/tt1431045/\r\n\r\nSource: 1080p Naver\r\n\r\nFormat                                   : Matroska\r\nFormat version                           : Version 2\r\nFile size                                : 2.37 GiB\r\nDuration                                 : 1h 47mn\r\nOverall bit rate mode                    : Variable\r\nOverall bit rate                         : 3 143 Kbps\r\nEncoded date                             : UTC 2016-03-24 01:25:24\r\n\r\nVideo\r\nID                                       : 1\r\nFormat                                   : AVC\r\nFormat/Info                              : Advanced Video Codec\r\nFormat profile                           :   \r\nFormat settings, CABAC                   : Yes\r\nFormat settings, ReFrames                : 3 frames\r\nCodec ID                                 : V_MPEG4/ISO/AVC\r\nDuration                                 : 1h 47mn\r\nBit rate mode                            : Variable\r\nBit rate                                 : 2 889 Kbps\r\nMaximum bit rate                         : 40.0 Mbps\r\nWidth                                    : 1 280 pixels\r\nHeight                                   : 720 pixels\r\nDisplay aspect ratio                     : 16:9\r\nFrame rate mode                          : Constant\r\nFrame rate                               : 29.970 fps\r\nColor space                              : YUV\r\nChroma subsampling                       : 4:2:0\r\nBit depth                                : 8 bits\r\nScan type                                : Progressive\r\nBits/(Pixel*Frame)                       : 0.105\r\nStream size                              : 2.18 GiB (92%)\r\nDefault                                  : Yes\r\nForced                                   : No\r\nColor primaries                          : BT.709\r\nTransfer characteristics                 : BT.709\r\nMatrix coefficients                      : BT.709\r\n\r\nAudio\r\nID                                       : 2\r\nFormat                                   : AC-3\r\nFormat/Info                              : Audio Coding 3\r\nMode extension                           : CM (complete main)\r\nFormat settings, Endianness              : Big\r\nCodec ID                                 : A_AC3\r\nDuration                                 : 1h 47mn\r\nBit rate mode                            : Constant\r\nBit rate                                 : 192 Kbps\r\nChannel(s)                               : 2 channels\r\nChannel positions                        : Front: L R\r\nSampling rate                            : 48.0 KHz\r\nBit depth                                : 16 bits\r\nCompression mode                         : Lossy\r\nStream size                              : 148 MiB (6%)\r\nLanguage                                 : English\r\nDefault                                  : Yes\r\nForced                                   : No","torrent":{"xt":"urn:btih:3aee093745b2671f5e15e2a5d4a0b5787a881fa1","amp;dn":"Deadpool+2016+720p+HC+HDRIP+x264+AC3+TiTAN","amp;tr":["udp%3A%2F%2Ftracker.leechers-paradise.org%3A6969","udp%3A%2F%2Fzer0day.ch%3A1337","udp%3A%2F%2Fopen.demonii.com%3A1337","udp%3A%2F%2Ftracker.coppersurfer.tk%3A6969","udp%3A%2F%2Fexodus.desync.com%3A6969"],"infoHash":"3aee093745b2671f5e15e2a5d4a0b5787a881fa1","infoHashBuffer":{"type":"Buffer","data":[58,238,9,55,69,178,103,31,94,21,226,165,212,160,181,120,122,136,31,161]},"announce":[],"urlList":[]}}